<mxfile host="Electron" agent="Mozilla/5.0 (Windows NT 10.0; Win64; x64) AppleWebKit/537.36 (KHTML, like Gecko) draw.io/24.7.17 Chrome/128.0.6613.36 Electron/32.0.1 Safari/537.36" version="24.7.17">
  <diagram name="Page-1" id="2YBvvXClWsGukQMizWep">
    <mxGraphModel dx="1727" dy="1023" grid="1" gridSize="10" guides="1" tooltips="1" connect="1" arrows="1" fold="1" page="1" pageScale="1" pageWidth="850" pageHeight="1100" math="0" shadow="0">
      <root>
        <mxCell id="0" />
        <mxCell id="1" parent="0" />
        <mxCell id="yB0P6Vh_JrnIeVbZpH2q-28" value="User&lt;br&gt;(Khách Hàng)" style="rounded=0;whiteSpace=wrap;html=1;fillColor=#0050ef;fontColor=#ffffff;strokeColor=#001DBC;" vertex="1" parent="1">
          <mxGeometry x="408.86" y="360" width="120" height="60" as="geometry" />
        </mxCell>
        <mxCell id="yB0P6Vh_JrnIeVbZpH2q-29" value="Booking" style="rounded=0;whiteSpace=wrap;html=1;fillColor=#0050ef;fontColor=#ffffff;strokeColor=#001DBC;" vertex="1" parent="1">
          <mxGeometry x="408.86" y="630" width="120" height="60" as="geometry" />
        </mxCell>
        <mxCell id="yB0P6Vh_JrnIeVbZpH2q-30" value="Service&lt;br&gt;(Dịch Vụ)" style="rounded=0;whiteSpace=wrap;html=1;fillColor=#0050ef;fontColor=#ffffff;strokeColor=#001DBC;" vertex="1" parent="1">
          <mxGeometry x="408.86" y="895" width="120" height="60" as="geometry" />
        </mxCell>
        <mxCell id="yB0P6Vh_JrnIeVbZpH2q-31" value="Khiếu nại" style="rounded=0;whiteSpace=wrap;html=1;fillColor=#0050ef;fontColor=#ffffff;strokeColor=#001DBC;" vertex="1" parent="1">
          <mxGeometry x="158.86" y="210" width="120" height="60" as="geometry" />
        </mxCell>
        <mxCell id="yB0P6Vh_JrnIeVbZpH2q-32" value="Payment" style="rounded=0;whiteSpace=wrap;html=1;fillColor=#0050ef;fontColor=#ffffff;strokeColor=#001DBC;" vertex="1" parent="1">
          <mxGeometry x="698.86" y="560" width="120" height="60" as="geometry" />
        </mxCell>
        <mxCell id="yB0P6Vh_JrnIeVbZpH2q-33" value="Service Provder&lt;br&gt;(NCC DV)" style="rounded=0;whiteSpace=wrap;html=1;fillColor=#0050ef;fontColor=#ffffff;strokeColor=#001DBC;" vertex="1" parent="1">
          <mxGeometry x="158.86" y="790" width="120" height="60" as="geometry" />
        </mxCell>
        <mxCell id="yB0P6Vh_JrnIeVbZpH2q-34" value="Admin&lt;br&gt;(Quản lý hệ thống)" style="rounded=0;whiteSpace=wrap;html=1;fillColor=#0050ef;fontColor=#ffffff;strokeColor=#001DBC;" vertex="1" parent="1">
          <mxGeometry x="158.86" y="510" width="120" height="60" as="geometry" />
        </mxCell>
        <mxCell id="yB0P6Vh_JrnIeVbZpH2q-38" value="" style="group;fillColor=#dae8fc;strokeColor=#6c8ebf;" vertex="1" connectable="0" parent="1">
          <mxGeometry x="413.86" y="500" width="110" height="50" as="geometry" />
        </mxCell>
        <mxCell id="yB0P6Vh_JrnIeVbZpH2q-36" value="" style="rounded=0;whiteSpace=wrap;html=1;fillColor=#dae8fc;strokeColor=#6c8ebf;" vertex="1" parent="yB0P6Vh_JrnIeVbZpH2q-38">
          <mxGeometry width="110" height="50" as="geometry" />
        </mxCell>
        <mxCell id="yB0P6Vh_JrnIeVbZpH2q-37" value="Đặt" style="rhombus;whiteSpace=wrap;html=1;fillColor=#dae8fc;strokeColor=#6c8ebf;" vertex="1" parent="yB0P6Vh_JrnIeVbZpH2q-38">
          <mxGeometry width="110" height="50" as="geometry" />
        </mxCell>
        <mxCell id="yB0P6Vh_JrnIeVbZpH2q-40" value="" style="endArrow=none;html=1;rounded=0;exitX=0.5;exitY=1;exitDx=0;exitDy=0;entryX=0.5;entryY=0;entryDx=0;entryDy=0;" edge="1" parent="1" source="yB0P6Vh_JrnIeVbZpH2q-46" target="yB0P6Vh_JrnIeVbZpH2q-29">
          <mxGeometry width="50" height="50" relative="1" as="geometry">
            <mxPoint x="663.86" y="600" as="sourcePoint" />
            <mxPoint x="713.86" y="550" as="targetPoint" />
          </mxGeometry>
        </mxCell>
        <mxCell id="yB0P6Vh_JrnIeVbZpH2q-60" value="" style="group" vertex="1" connectable="0" parent="1">
          <mxGeometry x="463.86" y="420" width="45" height="30" as="geometry" />
        </mxCell>
        <mxCell id="yB0P6Vh_JrnIeVbZpH2q-39" value="" style="endArrow=none;html=1;rounded=0;exitX=0.5;exitY=0;exitDx=0;exitDy=0;entryX=0.5;entryY=1;entryDx=0;entryDy=0;" edge="1" parent="yB0P6Vh_JrnIeVbZpH2q-60" source="yB0P6Vh_JrnIeVbZpH2q-36" target="yB0P6Vh_JrnIeVbZpH2q-28">
          <mxGeometry width="50" height="50" relative="1" as="geometry">
            <mxPoint x="200" y="170" as="sourcePoint" />
            <mxPoint x="250" y="120" as="targetPoint" />
          </mxGeometry>
        </mxCell>
        <mxCell id="yB0P6Vh_JrnIeVbZpH2q-44" value="(1,n)" style="text;html=1;align=center;verticalAlign=middle;resizable=0;points=[];autosize=1;strokeColor=none;fillColor=none;" vertex="1" parent="yB0P6Vh_JrnIeVbZpH2q-60">
          <mxGeometry x="-5" width="50" height="30" as="geometry" />
        </mxCell>
        <mxCell id="yB0P6Vh_JrnIeVbZpH2q-62" value="" style="group" vertex="1" connectable="0" parent="1">
          <mxGeometry x="463.86" y="600" width="45" height="30" as="geometry" />
        </mxCell>
        <mxCell id="yB0P6Vh_JrnIeVbZpH2q-47" value="" style="endArrow=none;html=1;rounded=0;exitX=0.5;exitY=1;exitDx=0;exitDy=0;" edge="1" parent="yB0P6Vh_JrnIeVbZpH2q-62" source="yB0P6Vh_JrnIeVbZpH2q-37" target="yB0P6Vh_JrnIeVbZpH2q-29">
          <mxGeometry width="50" height="50" relative="1" as="geometry">
            <mxPoint x="5" y="-10" as="sourcePoint" />
            <mxPoint x="20" as="targetPoint" />
          </mxGeometry>
        </mxCell>
        <mxCell id="yB0P6Vh_JrnIeVbZpH2q-46" value="(1,1)" style="text;html=1;align=center;verticalAlign=middle;resizable=0;points=[];autosize=1;strokeColor=none;fillColor=none;" vertex="1" parent="yB0P6Vh_JrnIeVbZpH2q-62">
          <mxGeometry x="-5" width="50" height="30" as="geometry" />
        </mxCell>
        <mxCell id="yB0P6Vh_JrnIeVbZpH2q-65" value="" style="group;fillColor=#dae8fc;strokeColor=#6c8ebf;" vertex="1" connectable="0" parent="1">
          <mxGeometry x="413.86" y="760" width="110" height="50" as="geometry" />
        </mxCell>
        <mxCell id="yB0P6Vh_JrnIeVbZpH2q-66" value="" style="rounded=0;whiteSpace=wrap;html=1;fillColor=#dae8fc;strokeColor=#6c8ebf;" vertex="1" parent="yB0P6Vh_JrnIeVbZpH2q-65">
          <mxGeometry width="110" height="50" as="geometry" />
        </mxCell>
        <mxCell id="yB0P6Vh_JrnIeVbZpH2q-67" value="Được đặt&lt;br&gt;/Liên quan" style="rhombus;whiteSpace=wrap;html=1;fillColor=#dae8fc;strokeColor=#6c8ebf;" vertex="1" parent="yB0P6Vh_JrnIeVbZpH2q-65">
          <mxGeometry width="110" height="50" as="geometry" />
        </mxCell>
        <mxCell id="yB0P6Vh_JrnIeVbZpH2q-69" value="" style="group" vertex="1" connectable="0" parent="1">
          <mxGeometry x="463.86" y="860" width="45" height="30" as="geometry" />
        </mxCell>
        <mxCell id="yB0P6Vh_JrnIeVbZpH2q-71" value="(1,n)" style="text;html=1;align=center;verticalAlign=middle;resizable=0;points=[];autosize=1;strokeColor=none;fillColor=none;" vertex="1" parent="yB0P6Vh_JrnIeVbZpH2q-69">
          <mxGeometry x="-5" width="50" height="30" as="geometry" />
        </mxCell>
        <mxCell id="yB0P6Vh_JrnIeVbZpH2q-72" value="" style="group" vertex="1" connectable="0" parent="1">
          <mxGeometry x="463.86" y="690" width="45" height="30" as="geometry" />
        </mxCell>
        <mxCell id="yB0P6Vh_JrnIeVbZpH2q-74" value="(1,1)" style="text;html=1;align=center;verticalAlign=middle;resizable=0;points=[];autosize=1;strokeColor=none;fillColor=none;" vertex="1" parent="yB0P6Vh_JrnIeVbZpH2q-72">
          <mxGeometry x="-5" width="50" height="30" as="geometry" />
        </mxCell>
        <mxCell id="yB0P6Vh_JrnIeVbZpH2q-75" value="" style="endArrow=none;html=1;rounded=0;entryX=0.5;entryY=0;entryDx=0;entryDy=0;exitX=0.5;exitY=1;exitDx=0;exitDy=0;" edge="1" parent="1" source="yB0P6Vh_JrnIeVbZpH2q-67" target="yB0P6Vh_JrnIeVbZpH2q-30">
          <mxGeometry width="50" height="50" relative="1" as="geometry">
            <mxPoint x="468.86" y="810" as="sourcePoint" />
            <mxPoint x="611.86" y="490" as="targetPoint" />
          </mxGeometry>
        </mxCell>
        <mxCell id="yB0P6Vh_JrnIeVbZpH2q-73" value="" style="endArrow=none;html=1;rounded=0;exitX=0.5;exitY=0;exitDx=0;exitDy=0;entryX=0.5;entryY=1;entryDx=0;entryDy=0;" edge="1" parent="1" source="yB0P6Vh_JrnIeVbZpH2q-67" target="yB0P6Vh_JrnIeVbZpH2q-29">
          <mxGeometry width="50" height="50" relative="1" as="geometry">
            <mxPoint x="616.86" y="670" as="sourcePoint" />
            <mxPoint x="631.86" y="680" as="targetPoint" />
          </mxGeometry>
        </mxCell>
        <mxCell id="yB0P6Vh_JrnIeVbZpH2q-79" value="" style="endArrow=none;html=1;rounded=0;entryX=0;entryY=1;entryDx=0;entryDy=0;exitX=1;exitY=0;exitDx=0;exitDy=0;" edge="1" parent="1" source="yB0P6Vh_JrnIeVbZpH2q-29" target="yB0P6Vh_JrnIeVbZpH2q-32">
          <mxGeometry width="50" height="50" relative="1" as="geometry">
            <mxPoint x="668.86" y="660" as="sourcePoint" />
            <mxPoint x="671.86" y="870" as="targetPoint" />
          </mxGeometry>
        </mxCell>
        <mxCell id="yB0P6Vh_JrnIeVbZpH2q-81" value="" style="group" vertex="1" connectable="0" parent="1">
          <mxGeometry x="528.86" y="590" width="45" height="30" as="geometry" />
        </mxCell>
        <mxCell id="yB0P6Vh_JrnIeVbZpH2q-83" value="(1,1)" style="text;html=1;align=center;verticalAlign=middle;resizable=0;points=[];autosize=1;strokeColor=none;fillColor=none;" vertex="1" parent="yB0P6Vh_JrnIeVbZpH2q-81">
          <mxGeometry x="-5" width="50" height="30" as="geometry" />
        </mxCell>
        <mxCell id="yB0P6Vh_JrnIeVbZpH2q-84" value="" style="endArrow=none;html=1;rounded=0;entryX=1;entryY=1;entryDx=0;entryDy=0;exitX=0;exitY=0;exitDx=0;exitDy=0;" edge="1" parent="1" source="yB0P6Vh_JrnIeVbZpH2q-29" target="yB0P6Vh_JrnIeVbZpH2q-31">
          <mxGeometry width="50" height="50" relative="1" as="geometry">
            <mxPoint x="628.86" y="700" as="sourcePoint" />
            <mxPoint x="895.36" y="730" as="targetPoint" />
          </mxGeometry>
        </mxCell>
        <mxCell id="yB0P6Vh_JrnIeVbZpH2q-85" value="" style="group" vertex="1" connectable="0" parent="1">
          <mxGeometry x="368.86" y="610" width="45" height="30" as="geometry" />
        </mxCell>
        <mxCell id="yB0P6Vh_JrnIeVbZpH2q-86" value="(1,n)" style="text;html=1;align=center;verticalAlign=middle;resizable=0;points=[];autosize=1;strokeColor=none;fillColor=none;" vertex="1" parent="yB0P6Vh_JrnIeVbZpH2q-85">
          <mxGeometry x="-5" width="50" height="30" as="geometry" />
        </mxCell>
        <mxCell id="yB0P6Vh_JrnIeVbZpH2q-87" value="" style="group;fillColor=#dae8fc;strokeColor=#6c8ebf;" vertex="1" connectable="0" parent="1">
          <mxGeometry x="163.86" y="900" width="110" height="50" as="geometry" />
        </mxCell>
        <mxCell id="yB0P6Vh_JrnIeVbZpH2q-88" value="" style="rounded=0;whiteSpace=wrap;html=1;fillColor=#dae8fc;strokeColor=#6c8ebf;" vertex="1" parent="yB0P6Vh_JrnIeVbZpH2q-87">
          <mxGeometry width="110" height="50" as="geometry" />
        </mxCell>
        <mxCell id="yB0P6Vh_JrnIeVbZpH2q-89" value="Cung cấp" style="rhombus;whiteSpace=wrap;html=1;fillColor=#dae8fc;strokeColor=#6c8ebf;" vertex="1" parent="yB0P6Vh_JrnIeVbZpH2q-87">
          <mxGeometry width="110" height="50" as="geometry" />
        </mxCell>
        <mxCell id="yB0P6Vh_JrnIeVbZpH2q-91" value="" style="endArrow=none;html=1;rounded=0;exitX=0.5;exitY=1;exitDx=0;exitDy=0;entryX=0.5;entryY=0;entryDx=0;entryDy=0;" edge="1" parent="1" source="yB0P6Vh_JrnIeVbZpH2q-33" target="yB0P6Vh_JrnIeVbZpH2q-89">
          <mxGeometry width="50" height="50" relative="1" as="geometry">
            <mxPoint x="238.86" y="860" as="sourcePoint" />
            <mxPoint x="218.86" y="880" as="targetPoint" />
          </mxGeometry>
        </mxCell>
        <mxCell id="yB0P6Vh_JrnIeVbZpH2q-92" value="" style="group" vertex="1" connectable="0" parent="1">
          <mxGeometry x="218.86" y="850" width="45" height="30" as="geometry" />
        </mxCell>
        <mxCell id="yB0P6Vh_JrnIeVbZpH2q-93" value="(1,n)" style="text;html=1;align=center;verticalAlign=middle;resizable=0;points=[];autosize=1;strokeColor=none;fillColor=none;" vertex="1" parent="yB0P6Vh_JrnIeVbZpH2q-92">
          <mxGeometry x="-5" width="50" height="30" as="geometry" />
        </mxCell>
        <mxCell id="yB0P6Vh_JrnIeVbZpH2q-95" value="" style="endArrow=none;html=1;rounded=0;entryX=0;entryY=0.5;entryDx=0;entryDy=0;exitX=1;exitY=0.5;exitDx=0;exitDy=0;" edge="1" parent="1" source="yB0P6Vh_JrnIeVbZpH2q-89" target="yB0P6Vh_JrnIeVbZpH2q-30">
          <mxGeometry width="50" height="50" relative="1" as="geometry">
            <mxPoint x="278.86" y="925" as="sourcePoint" />
            <mxPoint x="368.86" y="927" as="targetPoint" />
          </mxGeometry>
        </mxCell>
        <mxCell id="yB0P6Vh_JrnIeVbZpH2q-98" value="" style="endArrow=none;html=1;rounded=0;entryX=0;entryY=0;entryDx=0;entryDy=0;exitX=1;exitY=0.5;exitDx=0;exitDy=0;" edge="1" parent="1" source="yB0P6Vh_JrnIeVbZpH2q-28" target="yB0P6Vh_JrnIeVbZpH2q-32">
          <mxGeometry width="50" height="50" relative="1" as="geometry">
            <mxPoint x="568.86" y="455" as="sourcePoint" />
            <mxPoint x="781.86" y="415" as="targetPoint" />
          </mxGeometry>
        </mxCell>
        <mxCell id="yB0P6Vh_JrnIeVbZpH2q-102" value="" style="group;fillColor=#dae8fc;strokeColor=#6c8ebf;" vertex="1" connectable="0" parent="1">
          <mxGeometry x="163.86" y="660" width="110" height="50" as="geometry" />
        </mxCell>
        <mxCell id="yB0P6Vh_JrnIeVbZpH2q-103" value="" style="rounded=0;whiteSpace=wrap;html=1;fillColor=#dae8fc;strokeColor=#6c8ebf;" vertex="1" parent="yB0P6Vh_JrnIeVbZpH2q-102">
          <mxGeometry width="110" height="50" as="geometry" />
        </mxCell>
        <mxCell id="yB0P6Vh_JrnIeVbZpH2q-104" value="Quản lý" style="rhombus;whiteSpace=wrap;html=1;fillColor=#dae8fc;strokeColor=#6c8ebf;" vertex="1" parent="yB0P6Vh_JrnIeVbZpH2q-102">
          <mxGeometry width="110" height="50" as="geometry" />
        </mxCell>
        <mxCell id="yB0P6Vh_JrnIeVbZpH2q-106" value="" style="endArrow=none;html=1;rounded=0;entryX=0.5;entryY=0;entryDx=0;entryDy=0;exitX=0.5;exitY=1;exitDx=0;exitDy=0;" edge="1" parent="1" source="yB0P6Vh_JrnIeVbZpH2q-34" target="yB0P6Vh_JrnIeVbZpH2q-104">
          <mxGeometry width="50" height="50" relative="1" as="geometry">
            <mxPoint x="288.86" y="610" as="sourcePoint" />
            <mxPoint x="501.86" y="730" as="targetPoint" />
          </mxGeometry>
        </mxCell>
        <mxCell id="yB0P6Vh_JrnIeVbZpH2q-107" value="" style="endArrow=none;html=1;rounded=0;entryX=0.5;entryY=0;entryDx=0;entryDy=0;exitX=0.5;exitY=1;exitDx=0;exitDy=0;" edge="1" parent="1" source="yB0P6Vh_JrnIeVbZpH2q-104" target="yB0P6Vh_JrnIeVbZpH2q-33">
          <mxGeometry width="50" height="50" relative="1" as="geometry">
            <mxPoint x="263.86" y="590" as="sourcePoint" />
            <mxPoint x="268.86" y="670" as="targetPoint" />
          </mxGeometry>
        </mxCell>
        <mxCell id="yB0P6Vh_JrnIeVbZpH2q-108" value="" style="group" vertex="1" connectable="0" parent="1">
          <mxGeometry x="218.86" y="570" width="45" height="30" as="geometry" />
        </mxCell>
        <mxCell id="yB0P6Vh_JrnIeVbZpH2q-109" value="(1,n)" style="text;html=1;align=center;verticalAlign=middle;resizable=0;points=[];autosize=1;strokeColor=none;fillColor=none;" vertex="1" parent="yB0P6Vh_JrnIeVbZpH2q-108">
          <mxGeometry x="-5" width="50" height="30" as="geometry" />
        </mxCell>
        <mxCell id="yB0P6Vh_JrnIeVbZpH2q-113" value="" style="endArrow=none;html=1;rounded=0;entryX=0.5;entryY=0;entryDx=0;entryDy=0;exitX=0.5;exitY=1;exitDx=0;exitDy=0;" edge="1" target="yB0P6Vh_JrnIeVbZpH2q-114" parent="1" source="yB0P6Vh_JrnIeVbZpH2q-31">
          <mxGeometry width="50" height="50" relative="1" as="geometry">
            <mxPoint x="203.86" y="380" as="sourcePoint" />
            <mxPoint x="486.86" y="540" as="targetPoint" />
          </mxGeometry>
        </mxCell>
        <mxCell id="yB0P6Vh_JrnIeVbZpH2q-112" value="(1,n)" style="text;html=1;align=center;verticalAlign=middle;resizable=0;points=[];autosize=1;strokeColor=none;fillColor=none;" vertex="1" parent="1">
          <mxGeometry x="218.86" y="480" width="50" height="30" as="geometry" />
        </mxCell>
        <mxCell id="yB0P6Vh_JrnIeVbZpH2q-118" value="" style="endArrow=none;html=1;rounded=0;entryX=0.5;entryY=1;entryDx=0;entryDy=0;exitX=0.5;exitY=0;exitDx=0;exitDy=0;" edge="1" parent="1" source="yB0P6Vh_JrnIeVbZpH2q-34" target="yB0P6Vh_JrnIeVbZpH2q-110">
          <mxGeometry width="50" height="50" relative="1" as="geometry">
            <mxPoint x="383.86" y="640" as="sourcePoint" />
            <mxPoint x="238.86" y="330" as="targetPoint" />
          </mxGeometry>
        </mxCell>
        <mxCell id="yB0P6Vh_JrnIeVbZpH2q-119" value="" style="group" vertex="1" connectable="0" parent="1">
          <mxGeometry x="163.86" y="380" width="110" height="50" as="geometry" />
        </mxCell>
        <mxCell id="yB0P6Vh_JrnIeVbZpH2q-110" value="" style="rounded=0;whiteSpace=wrap;html=1;fillColor=#dae8fc;strokeColor=#6c8ebf;" vertex="1" parent="yB0P6Vh_JrnIeVbZpH2q-119">
          <mxGeometry width="110" height="50" as="geometry" />
        </mxCell>
        <mxCell id="yB0P6Vh_JrnIeVbZpH2q-114" value="Xử lý" style="rhombus;whiteSpace=wrap;html=1;fillColor=#dae8fc;strokeColor=#6c8ebf;" vertex="1" parent="yB0P6Vh_JrnIeVbZpH2q-119">
          <mxGeometry width="110" height="50" as="geometry" />
        </mxCell>
        <mxCell id="yB0P6Vh_JrnIeVbZpH2q-122" value="&lt;u&gt;Id_KN&lt;/u&gt;" style="ellipse;whiteSpace=wrap;html=1;" vertex="1" parent="1">
          <mxGeometry x="58.86" y="120" width="80" height="40" as="geometry" />
        </mxCell>
        <mxCell id="yB0P6Vh_JrnIeVbZpH2q-123" value="" style="endArrow=none;html=1;rounded=0;" edge="1" parent="1" source="yB0P6Vh_JrnIeVbZpH2q-31" target="yB0P6Vh_JrnIeVbZpH2q-122">
          <mxGeometry width="50" height="50" relative="1" as="geometry">
            <mxPoint x="428.86" y="550" as="sourcePoint" />
            <mxPoint x="298.86" y="220" as="targetPoint" />
          </mxGeometry>
        </mxCell>
        <mxCell id="yB0P6Vh_JrnIeVbZpH2q-125" value="Thời gian KN" style="ellipse;whiteSpace=wrap;html=1;" vertex="1" parent="1">
          <mxGeometry x="118.86" y="70" width="80" height="40" as="geometry" />
        </mxCell>
        <mxCell id="yB0P6Vh_JrnIeVbZpH2q-126" value="" style="endArrow=none;html=1;rounded=0;" edge="1" target="yB0P6Vh_JrnIeVbZpH2q-125" parent="1" source="yB0P6Vh_JrnIeVbZpH2q-31">
          <mxGeometry width="50" height="50" relative="1" as="geometry">
            <mxPoint x="295.86" y="240" as="sourcePoint" />
            <mxPoint x="403.86" y="220" as="targetPoint" />
          </mxGeometry>
        </mxCell>
        <mxCell id="yB0P6Vh_JrnIeVbZpH2q-127" value="Trạng thái" style="ellipse;whiteSpace=wrap;html=1;" vertex="1" parent="1">
          <mxGeometry x="201.36" y="130" width="80" height="40" as="geometry" />
        </mxCell>
        <mxCell id="yB0P6Vh_JrnIeVbZpH2q-128" value="" style="endArrow=none;html=1;rounded=0;" edge="1" target="yB0P6Vh_JrnIeVbZpH2q-127" parent="1" source="yB0P6Vh_JrnIeVbZpH2q-31">
          <mxGeometry width="50" height="50" relative="1" as="geometry">
            <mxPoint x="405.86" y="240" as="sourcePoint" />
            <mxPoint x="513.86" y="220" as="targetPoint" />
          </mxGeometry>
        </mxCell>
        <mxCell id="yB0P6Vh_JrnIeVbZpH2q-129" value="" style="endArrow=none;html=1;rounded=0;" edge="1" target="yB0P6Vh_JrnIeVbZpH2q-130" parent="1" source="yB0P6Vh_JrnIeVbZpH2q-28">
          <mxGeometry width="50" height="50" relative="1" as="geometry">
            <mxPoint x="556.86" y="260" as="sourcePoint" />
            <mxPoint x="753.86" y="270" as="targetPoint" />
          </mxGeometry>
        </mxCell>
        <mxCell id="yB0P6Vh_JrnIeVbZpH2q-130" value="Tên" style="ellipse;whiteSpace=wrap;html=1;" vertex="1" parent="1">
          <mxGeometry x="383.86" y="170" width="80" height="40" as="geometry" />
        </mxCell>
        <mxCell id="yB0P6Vh_JrnIeVbZpH2q-131" value="" style="endArrow=none;html=1;rounded=0;" edge="1" target="yB0P6Vh_JrnIeVbZpH2q-132" parent="1" source="yB0P6Vh_JrnIeVbZpH2q-28">
          <mxGeometry width="50" height="50" relative="1" as="geometry">
            <mxPoint x="686.86" y="270" as="sourcePoint" />
            <mxPoint x="883.86" y="280" as="targetPoint" />
          </mxGeometry>
        </mxCell>
        <mxCell id="yB0P6Vh_JrnIeVbZpH2q-132" value="Mail" style="ellipse;whiteSpace=wrap;html=1;" vertex="1" parent="1">
          <mxGeometry x="448.86" y="210" width="80" height="40" as="geometry" />
        </mxCell>
        <mxCell id="yB0P6Vh_JrnIeVbZpH2q-136" value="&lt;u&gt;Id_KH&lt;/u&gt;" style="ellipse;whiteSpace=wrap;html=1;" vertex="1" parent="1">
          <mxGeometry x="348.86" y="270" width="80" height="40" as="geometry" />
        </mxCell>
        <mxCell id="yB0P6Vh_JrnIeVbZpH2q-137" value="" style="endArrow=none;html=1;rounded=0;" edge="1" target="yB0P6Vh_JrnIeVbZpH2q-136" parent="1" source="yB0P6Vh_JrnIeVbZpH2q-28">
          <mxGeometry width="50" height="50" relative="1" as="geometry">
            <mxPoint x="501.86" y="300" as="sourcePoint" />
            <mxPoint x="698.86" y="310" as="targetPoint" />
          </mxGeometry>
        </mxCell>
        <mxCell id="yB0P6Vh_JrnIeVbZpH2q-141" value="Đại chỉ" style="ellipse;whiteSpace=wrap;html=1;" vertex="1" parent="1">
          <mxGeometry x="528.86" y="170" width="80" height="40" as="geometry" />
        </mxCell>
        <mxCell id="yB0P6Vh_JrnIeVbZpH2q-142" value="" style="endArrow=none;html=1;rounded=0;" edge="1" target="yB0P6Vh_JrnIeVbZpH2q-141" parent="1" source="yB0P6Vh_JrnIeVbZpH2q-28">
          <mxGeometry width="50" height="50" relative="1" as="geometry">
            <mxPoint x="756.86" y="220" as="sourcePoint" />
            <mxPoint x="953.86" y="230" as="targetPoint" />
          </mxGeometry>
        </mxCell>
        <mxCell id="yB0P6Vh_JrnIeVbZpH2q-143" value="SDT" style="ellipse;whiteSpace=wrap;html=1;" vertex="1" parent="1">
          <mxGeometry x="543.86" y="250" width="80" height="40" as="geometry" />
        </mxCell>
        <mxCell id="yB0P6Vh_JrnIeVbZpH2q-144" value="" style="endArrow=none;html=1;rounded=0;" edge="1" target="yB0P6Vh_JrnIeVbZpH2q-143" parent="1" source="yB0P6Vh_JrnIeVbZpH2q-28">
          <mxGeometry width="50" height="50" relative="1" as="geometry">
            <mxPoint x="528.8599999999998" y="360" as="sourcePoint" />
            <mxPoint x="1047.35" y="270" as="targetPoint" />
          </mxGeometry>
        </mxCell>
        <mxCell id="yB0P6Vh_JrnIeVbZpH2q-145" value="Phương thức TT" style="ellipse;whiteSpace=wrap;html=1;" vertex="1" parent="1">
          <mxGeometry x="698.86" y="400" width="80" height="40" as="geometry" />
        </mxCell>
        <mxCell id="yB0P6Vh_JrnIeVbZpH2q-146" value="" style="endArrow=none;html=1;rounded=0;" edge="1" target="yB0P6Vh_JrnIeVbZpH2q-145" parent="1" source="yB0P6Vh_JrnIeVbZpH2q-32">
          <mxGeometry width="50" height="50" relative="1" as="geometry">
            <mxPoint x="678.8599999999998" y="420" as="sourcePoint" />
            <mxPoint x="1197.35" y="330" as="targetPoint" />
          </mxGeometry>
        </mxCell>
        <mxCell id="yB0P6Vh_JrnIeVbZpH2q-148" value="Số lượng" style="ellipse;whiteSpace=wrap;html=1;" vertex="1" parent="1">
          <mxGeometry x="650" y="450" width="80" height="40" as="geometry" />
        </mxCell>
        <mxCell id="yB0P6Vh_JrnIeVbZpH2q-149" value="" style="endArrow=none;html=1;rounded=0;" edge="1" target="yB0P6Vh_JrnIeVbZpH2q-148" parent="1" source="yB0P6Vh_JrnIeVbZpH2q-32">
          <mxGeometry width="50" height="50" relative="1" as="geometry">
            <mxPoint x="779.86" y="800" as="sourcePoint" />
            <mxPoint x="1217.35" y="570" as="targetPoint" />
          </mxGeometry>
        </mxCell>
        <mxCell id="yB0P6Vh_JrnIeVbZpH2q-150" value="&lt;u&gt;Id_TT&lt;/u&gt;" style="ellipse;whiteSpace=wrap;html=1;" vertex="1" parent="1">
          <mxGeometry x="760" y="640" width="80" height="40" as="geometry" />
        </mxCell>
        <mxCell id="yB0P6Vh_JrnIeVbZpH2q-151" value="" style="endArrow=none;html=1;rounded=0;" edge="1" target="yB0P6Vh_JrnIeVbZpH2q-150" parent="1" source="yB0P6Vh_JrnIeVbZpH2q-32">
          <mxGeometry width="50" height="50" relative="1" as="geometry">
            <mxPoint x="719.86" y="710" as="sourcePoint" />
            <mxPoint x="1157.35" y="480" as="targetPoint" />
          </mxGeometry>
        </mxCell>
        <mxCell id="yB0P6Vh_JrnIeVbZpH2q-153" value="Giá" style="ellipse;whiteSpace=wrap;html=1;" vertex="1" parent="1">
          <mxGeometry x="750" y="470" width="80" height="40" as="geometry" />
        </mxCell>
        <mxCell id="yB0P6Vh_JrnIeVbZpH2q-154" value="" style="endArrow=none;html=1;rounded=0;" edge="1" target="yB0P6Vh_JrnIeVbZpH2q-153" parent="1" source="yB0P6Vh_JrnIeVbZpH2q-32">
          <mxGeometry width="50" height="50" relative="1" as="geometry">
            <mxPoint x="779.86" y="610" as="sourcePoint" />
            <mxPoint x="1257.1" y="630" as="targetPoint" />
          </mxGeometry>
        </mxCell>
        <mxCell id="yB0P6Vh_JrnIeVbZpH2q-155" value="&lt;u&gt;Id_D&lt;/u&gt;" style="ellipse;whiteSpace=wrap;html=1;" vertex="1" parent="1">
          <mxGeometry x="588.86" y="670" width="80" height="40" as="geometry" />
        </mxCell>
        <mxCell id="yB0P6Vh_JrnIeVbZpH2q-156" value="" style="endArrow=none;html=1;rounded=0;" edge="1" target="yB0P6Vh_JrnIeVbZpH2q-155" parent="1" source="yB0P6Vh_JrnIeVbZpH2q-29">
          <mxGeometry width="50" height="50" relative="1" as="geometry">
            <mxPoint x="678.11" y="780" as="sourcePoint" />
            <mxPoint x="1157.35" y="850" as="targetPoint" />
          </mxGeometry>
        </mxCell>
        <mxCell id="yB0P6Vh_JrnIeVbZpH2q-157" value="Thời gian Booking" style="ellipse;whiteSpace=wrap;html=1;" vertex="1" parent="1">
          <mxGeometry x="658.86" y="730" width="80" height="40" as="geometry" />
        </mxCell>
        <mxCell id="yB0P6Vh_JrnIeVbZpH2q-158" value="" style="endArrow=none;html=1;rounded=0;" edge="1" target="yB0P6Vh_JrnIeVbZpH2q-157" parent="1" source="yB0P6Vh_JrnIeVbZpH2q-29">
          <mxGeometry width="50" height="50" relative="1" as="geometry">
            <mxPoint x="523.86" y="739" as="sourcePoint" />
            <mxPoint x="1152.35" y="920" as="targetPoint" />
          </mxGeometry>
        </mxCell>
        <mxCell id="yB0P6Vh_JrnIeVbZpH2q-159" value="" style="endArrow=none;html=1;rounded=0;" edge="1" target="yB0P6Vh_JrnIeVbZpH2q-160" parent="1" source="yB0P6Vh_JrnIeVbZpH2q-29">
          <mxGeometry width="50" height="50" relative="1" as="geometry">
            <mxPoint x="523.86" y="750.11" as="sourcePoint" />
            <mxPoint x="1147.35" y="984.11" as="targetPoint" />
          </mxGeometry>
        </mxCell>
        <mxCell id="yB0P6Vh_JrnIeVbZpH2q-160" value="Trạng thái" style="ellipse;whiteSpace=wrap;html=1;" vertex="1" parent="1">
          <mxGeometry x="558.86" y="730" width="80" height="40" as="geometry" />
        </mxCell>
        <mxCell id="yB0P6Vh_JrnIeVbZpH2q-161" value="&lt;u&gt;Id_DV&lt;/u&gt;" style="ellipse;whiteSpace=wrap;html=1;" vertex="1" parent="1">
          <mxGeometry x="618.86" y="850" width="80" height="40" as="geometry" />
        </mxCell>
        <mxCell id="yB0P6Vh_JrnIeVbZpH2q-162" value="" style="endArrow=none;html=1;rounded=0;" edge="1" target="yB0P6Vh_JrnIeVbZpH2q-161" parent="1" source="yB0P6Vh_JrnIeVbZpH2q-30">
          <mxGeometry width="50" height="50" relative="1" as="geometry">
            <mxPoint x="555.2" y="790" as="sourcePoint" />
            <mxPoint x="1190.6899999999998" y="1084.1100000000001" as="targetPoint" />
          </mxGeometry>
        </mxCell>
        <mxCell id="yB0P6Vh_JrnIeVbZpH2q-163" value="" style="endArrow=none;html=1;rounded=0;" edge="1" target="yB0P6Vh_JrnIeVbZpH2q-164" parent="1" source="yB0P6Vh_JrnIeVbZpH2q-30">
          <mxGeometry width="50" height="50" relative="1" as="geometry">
            <mxPoint x="641.86" y="910" as="sourcePoint" />
            <mxPoint x="1277.35" y="1204.1100000000001" as="targetPoint" />
          </mxGeometry>
        </mxCell>
        <mxCell id="yB0P6Vh_JrnIeVbZpH2q-164" value="Thời gian" style="ellipse;whiteSpace=wrap;html=1;" vertex="1" parent="1">
          <mxGeometry x="640" y="940" width="78.86" height="40" as="geometry" />
        </mxCell>
        <mxCell id="yB0P6Vh_JrnIeVbZpH2q-165" value="Vị trí" style="ellipse;whiteSpace=wrap;html=1;" vertex="1" parent="1">
          <mxGeometry x="550" y="970" width="80" height="40" as="geometry" />
        </mxCell>
        <mxCell id="yB0P6Vh_JrnIeVbZpH2q-166" value="" style="endArrow=none;html=1;rounded=0;" edge="1" target="yB0P6Vh_JrnIeVbZpH2q-165" parent="1" source="yB0P6Vh_JrnIeVbZpH2q-30">
          <mxGeometry width="50" height="50" relative="1" as="geometry">
            <mxPoint x="523.86" y="989.6" as="sourcePoint" />
            <mxPoint x="1272.35" y="1258.71" as="targetPoint" />
          </mxGeometry>
        </mxCell>
        <mxCell id="yB0P6Vh_JrnIeVbZpH2q-167" value="Giá" style="ellipse;whiteSpace=wrap;html=1;" vertex="1" parent="1">
          <mxGeometry x="570" y="900" width="80" height="40" as="geometry" />
        </mxCell>
        <mxCell id="yB0P6Vh_JrnIeVbZpH2q-168" value="" style="endArrow=none;html=1;rounded=0;" edge="1" target="yB0P6Vh_JrnIeVbZpH2q-167" parent="1" source="yB0P6Vh_JrnIeVbZpH2q-30">
          <mxGeometry width="50" height="50" relative="1" as="geometry">
            <mxPoint x="538.86" y="890" as="sourcePoint" />
            <mxPoint x="1287.35" y="1159.1100000000001" as="targetPoint" />
          </mxGeometry>
        </mxCell>
        <mxCell id="yB0P6Vh_JrnIeVbZpH2q-169" value="Tên DV" style="ellipse;whiteSpace=wrap;html=1;" vertex="1" parent="1">
          <mxGeometry x="463.86" y="989.9999999999999" width="80" height="40" as="geometry" />
        </mxCell>
        <mxCell id="yB0P6Vh_JrnIeVbZpH2q-170" value="" style="endArrow=none;html=1;rounded=0;" edge="1" target="yB0P6Vh_JrnIeVbZpH2q-169" parent="1" source="yB0P6Vh_JrnIeVbZpH2q-30">
          <mxGeometry width="50" height="50" relative="1" as="geometry">
            <mxPoint x="468.86" y="1004.6" as="sourcePoint" />
            <mxPoint x="1217.35" y="1273.71" as="targetPoint" />
          </mxGeometry>
        </mxCell>
        <mxCell id="yB0P6Vh_JrnIeVbZpH2q-171" value="&lt;u&gt;Id_NCC&lt;/u&gt;" style="ellipse;whiteSpace=wrap;html=1;" vertex="1" parent="1">
          <mxGeometry x="78.86" y="665" width="80" height="40" as="geometry" />
        </mxCell>
        <mxCell id="yB0P6Vh_JrnIeVbZpH2q-172" value="" style="endArrow=none;html=1;rounded=0;" edge="1" target="yB0P6Vh_JrnIeVbZpH2q-171" parent="1" source="yB0P6Vh_JrnIeVbZpH2q-33">
          <mxGeometry width="50" height="50" relative="1" as="geometry">
            <mxPoint x="31.86" y="740" as="sourcePoint" />
            <mxPoint x="667.35" y="1034.1100000000001" as="targetPoint" />
          </mxGeometry>
        </mxCell>
        <mxCell id="yB0P6Vh_JrnIeVbZpH2q-174" value="Tên NCC" style="ellipse;whiteSpace=wrap;html=1;" vertex="1" parent="1">
          <mxGeometry x="28.86" y="780" width="80" height="40" as="geometry" />
        </mxCell>
        <mxCell id="yB0P6Vh_JrnIeVbZpH2q-175" value="" style="endArrow=none;html=1;rounded=0;" edge="1" target="yB0P6Vh_JrnIeVbZpH2q-174" parent="1" source="yB0P6Vh_JrnIeVbZpH2q-33">
          <mxGeometry width="50" height="50" relative="1" as="geometry">
            <mxPoint x="-81.14" y="841" as="sourcePoint" />
            <mxPoint x="677.35" y="1079.1100000000001" as="targetPoint" />
          </mxGeometry>
        </mxCell>
        <mxCell id="yB0P6Vh_JrnIeVbZpH2q-177" value="" style="endArrow=none;html=1;rounded=0;" edge="1" target="yB0P6Vh_JrnIeVbZpH2q-178" parent="1" source="yB0P6Vh_JrnIeVbZpH2q-33">
          <mxGeometry width="50" height="50" relative="1" as="geometry">
            <mxPoint x="-31.14" y="803" as="sourcePoint" />
            <mxPoint x="592.35" y="1040" as="targetPoint" />
          </mxGeometry>
        </mxCell>
        <mxCell id="yB0P6Vh_JrnIeVbZpH2q-178" value="Kiểu DV" style="ellipse;whiteSpace=wrap;html=1;" vertex="1" parent="1">
          <mxGeometry x="68.86" y="830" width="80" height="40" as="geometry" />
        </mxCell>
        <mxCell id="yB0P6Vh_JrnIeVbZpH2q-179" value="" style="endArrow=none;html=1;rounded=0;" edge="1" target="yB0P6Vh_JrnIeVbZpH2q-180" parent="1" source="yB0P6Vh_JrnIeVbZpH2q-33">
          <mxGeometry width="50" height="50" relative="1" as="geometry">
            <mxPoint x="-6.140000000000001" y="730" as="sourcePoint" />
            <mxPoint x="617.35" y="967" as="targetPoint" />
          </mxGeometry>
        </mxCell>
        <mxCell id="yB0P6Vh_JrnIeVbZpH2q-180" value="Thông tin liên hệ" style="ellipse;whiteSpace=wrap;html=1;" vertex="1" parent="1">
          <mxGeometry x="48.86" y="725" width="100" height="45" as="geometry" />
        </mxCell>
        <mxCell id="yB0P6Vh_JrnIeVbZpH2q-181" style="edgeStyle=orthogonalEdgeStyle;rounded=0;orthogonalLoop=1;jettySize=auto;html=1;exitX=0;exitY=0.5;exitDx=0;exitDy=0;entryX=0.125;entryY=0.509;entryDx=0;entryDy=0;entryPerimeter=0;" edge="1" parent="1" source="yB0P6Vh_JrnIeVbZpH2q-178" target="yB0P6Vh_JrnIeVbZpH2q-178">
          <mxGeometry relative="1" as="geometry" />
        </mxCell>
        <mxCell id="yB0P6Vh_JrnIeVbZpH2q-182" value="&lt;u&gt;Id_QL&lt;/u&gt;" style="ellipse;whiteSpace=wrap;html=1;" vertex="1" parent="1">
          <mxGeometry x="21" y="415" width="80" height="40" as="geometry" />
        </mxCell>
        <mxCell id="yB0P6Vh_JrnIeVbZpH2q-183" value="" style="endArrow=none;html=1;rounded=0;" edge="1" target="yB0P6Vh_JrnIeVbZpH2q-182" parent="1" source="yB0P6Vh_JrnIeVbZpH2q-34">
          <mxGeometry width="50" height="50" relative="1" as="geometry">
            <mxPoint x="136.86" y="360" as="sourcePoint" />
            <mxPoint x="333.86" y="370" as="targetPoint" />
          </mxGeometry>
        </mxCell>
        <mxCell id="yB0P6Vh_JrnIeVbZpH2q-184" value="Tên" style="ellipse;whiteSpace=wrap;html=1;" vertex="1" parent="1">
          <mxGeometry x="48.86" y="470" width="80" height="40" as="geometry" />
        </mxCell>
        <mxCell id="yB0P6Vh_JrnIeVbZpH2q-185" value="" style="endArrow=none;html=1;rounded=0;" edge="1" target="yB0P6Vh_JrnIeVbZpH2q-184" parent="1" source="yB0P6Vh_JrnIeVbZpH2q-34">
          <mxGeometry width="50" height="50" relative="1" as="geometry">
            <mxPoint x="201.35999999999996" y="590" as="sourcePoint" />
            <mxPoint x="306" y="630" as="targetPoint" />
          </mxGeometry>
        </mxCell>
        <mxCell id="yB0P6Vh_JrnIeVbZpH2q-186" value="Mail" style="ellipse;whiteSpace=wrap;html=1;" vertex="1" parent="1">
          <mxGeometry x="21" y="510" width="80" height="40" as="geometry" />
        </mxCell>
        <mxCell id="yB0P6Vh_JrnIeVbZpH2q-187" value="" style="endArrow=none;html=1;rounded=0;" edge="1" target="yB0P6Vh_JrnIeVbZpH2q-186" parent="1" source="yB0P6Vh_JrnIeVbZpH2q-34">
          <mxGeometry width="50" height="50" relative="1" as="geometry">
            <mxPoint x="177.79000000000002" y="563" as="sourcePoint" />
            <mxPoint x="324.93" y="668" as="targetPoint" />
          </mxGeometry>
        </mxCell>
        <mxCell id="yB0P6Vh_JrnIeVbZpH2q-188" value="Vai trò" style="ellipse;whiteSpace=wrap;html=1;" vertex="1" parent="1">
          <mxGeometry x="68.86" y="560" width="80" height="40" as="geometry" />
        </mxCell>
        <mxCell id="yB0P6Vh_JrnIeVbZpH2q-189" value="" style="endArrow=none;html=1;rounded=0;" edge="1" target="yB0P6Vh_JrnIeVbZpH2q-188" parent="1" source="yB0P6Vh_JrnIeVbZpH2q-34">
          <mxGeometry width="50" height="50" relative="1" as="geometry">
            <mxPoint x="167.79000000000002" y="615" as="sourcePoint" />
            <mxPoint x="314.93" y="720" as="targetPoint" />
          </mxGeometry>
        </mxCell>
      </root>
    </mxGraphModel>
  </diagram>
</mxfile>
